<svg xmlns="http://www.w3.org/2000/svg" preserveAspectRatio="xMidYMid" width="28" height="33" viewBox="0 0 28 33"><defs><style>.cls-2 { fill: #6b7076; }</style></defs><path d="M18.956 14.186c.192.14.363.215.53.244l.67 2.89L22 14.703l-.38-.23-.073-.04c.356-.85.624-1.744.36-2.107-.316-.442-1.61-1.77-1.703-1.87-.466-.498-1.094-.29-1.432.178-.152.218-.343.416-.45.62 0 .003-1.01 1.777.634 2.93zm-14.7 18.132c-.555-1.11.305-2.912.33-2.906.09.02.245.045.245.045l.15.412s.05.003.087.01c2.568.478 5.456.355 6.012-.044 1.366-.982 2.728-3.518 3.15-4.766 0 0 2.612-1.52 4.672-1.29 1.505.17 2.113 1.476 2.113 3.4.095 0 .65.054.65.054s-.05.213-.058.31c-.006.097-.24.343-.222.433.172.748.52 1.57 1.312 1.932 2.705-.647 5.306-3.18 5.306-3.18l-1.022-.876c-.795.648-2.03 1.2-2.843 1.287 0 0 .79-5.972-.057-6.765-1.054-.99-2.982-1.445-3.887-1.31l.966 2.708-11.326 2.744S9.192 22.865 9 22.3c.024 1.365-.914 3.547-1.29 3.984-.946 1.098-2.637 1.102-3.76.855l-1.004-.247s-.86 1.178-1.163 1.855c-1.374 3.064 1.302 4.25 1.302 4.25h22.43c-.473-.17-.997-.314-1.56-.44-4.496-1.5-14.625-1.43-19.7-.24zm2.754-11.35c.052.003 2.337-.12 2.944-.667.006 0 1.014-1.74.092-2.407-.286-.236-.71-.15-2.088-.092-1.378.06-1.856-.157-1.856-.157l1.097-.82-.923-3.676 9.62-2.206.023-.012c-1.17-1.056-2.93-1.868-5.808-1.565l-.588-.555c.336-.18.51-.2.808-.49C9.41 6.466 8.99 4.452 8.97 3.352c.67-.186 3.33-.43 3.883-3.348 0 0-1.897 1.296-3.37.555-2.49-1.253-4.227 1.04-4.227 1.04s-1.678.08-1.638 1.08c.12 2.995 1.098 5.186 2.985 7.734C4.315 11.417 3.177 12.4 2.11 13.95c-1.415 2.06-2.112 4.804-2.112 4.804s2.003 2.38 6.65 2.873c.096-.365.278-.457.362-.658z" id="path-1" class="cls-2" fill-rule="evenodd"/></svg>